<svg width="248" height="235" viewBox="0 0 248 235" fill="none" xmlns="http://www.w3.org/2000/svg">
<path fill-rule="evenodd" clip-rule="evenodd" d="M0 0H237V107.827L247.514 117.719L237 127.611V235H0V0Z" fill="#0FB239"/>
<mask id="path-2-outside-1_386_4208" maskUnits="userSpaceOnUse" x="16.8574" y="18.9902" width="91" height="62" fill="black">
<rect fill="white" x="16.8574" y="18.9902" width="91" height="62"/>
<path d="M41.0574 79.1102C34.0974 79.1102 28.5774 76.4702 24.5774 71.1902C20.6574 65.8302 18.6574 58.7902 18.6574 49.9902C18.6574 41.1902 20.6574 34.1502 24.5774 28.8702C28.5774 23.5102 34.0974 20.8702 41.0574 20.8702C48.0974 20.8702 53.6174 23.5102 57.5374 28.8702C61.4574 34.1502 63.4574 41.1902 63.4574 49.9902C63.4574 58.7902 61.4574 65.8302 57.5374 71.1902C53.6174 76.4702 48.0974 79.1102 41.0574 79.1102ZM52.4974 49.9902C52.4974 38.0702 48.4974 31.5902 41.0574 31.5902C33.6174 31.5902 29.6974 38.0702 29.6974 49.9902C29.6974 61.9102 33.6174 68.3102 41.0574 68.3102C48.4974 68.3102 52.4974 61.8302 52.4974 49.9902ZM106.042 77.9902H68.6018V69.7502L87.7218 50.0702C91.9618 45.5902 94.1218 41.8302 94.1218 38.8702C94.1218 34.4702 91.0818 31.5902 86.8418 31.5902C82.6018 31.5902 79.4818 33.7502 77.4818 38.1502L68.2018 32.7102C71.7218 25.0302 78.7618 20.8702 86.6818 20.8702C91.7218 20.8702 96.1218 22.4702 99.7218 25.6702C103.322 28.7902 105.162 33.1102 105.162 38.4702C105.162 44.3102 102.122 50.2302 95.9618 56.3902L85.0018 67.3502H106.042V77.9902Z"/>
</mask>
<path d="M24.5774 71.1902L23.7703 71.7806L23.7752 71.7874L23.7803 71.7941L24.5774 71.1902ZM24.5774 28.8702L23.776 28.2721L23.7745 28.2741L24.5774 28.8702ZM57.5374 28.8702L56.7302 29.4606L56.7345 29.4663L57.5374 28.8702ZM57.5374 71.1902L58.3404 71.7864L58.3446 71.7806L57.5374 71.1902ZM41.0574 78.1102C34.3898 78.1102 29.1733 75.6008 25.3745 70.5864L23.7803 71.7941C27.9815 77.3397 33.8051 80.1102 41.0574 80.1102V78.1102ZM25.3846 70.5999C21.6226 65.456 19.6574 58.6411 19.6574 49.9902H17.6574C17.6574 58.9393 19.6922 66.2045 23.7703 71.7806L25.3846 70.5999ZM19.6574 49.9902C19.6574 41.3372 21.6235 34.5265 25.3803 29.4663L23.7745 28.2741C19.6913 33.7739 17.6574 41.0432 17.6574 49.9902H19.6574ZM25.3789 29.4683C29.1775 24.3782 34.3913 21.8702 41.0574 21.8702V19.8702C33.8036 19.8702 27.9774 22.6423 23.776 28.2721L25.3789 29.4683ZM41.0574 21.8702C47.8077 21.8702 53.0152 24.3808 56.7303 29.4606L58.3446 28.2799C54.2197 22.6397 48.3872 19.8702 41.0574 19.8702V21.8702ZM56.7345 29.4663C60.4913 34.5265 62.4574 41.3372 62.4574 49.9902H64.4574C64.4574 41.0432 62.4235 33.7739 58.3403 28.2741L56.7345 29.4663ZM62.4574 49.9902C62.4574 58.6411 60.4922 65.456 56.7303 70.5999L58.3446 71.7806C62.4226 66.2045 64.4574 58.9393 64.4574 49.9902H62.4574ZM56.7345 70.5941C53.0194 75.5982 47.8092 78.1102 41.0574 78.1102V80.1102C48.3857 80.1102 54.2155 77.3423 58.3403 71.7863L56.7345 70.5941ZM53.4974 49.9902C53.4974 43.9456 52.4879 39.1298 50.4171 35.7929C48.306 32.3911 45.1259 30.5902 41.0574 30.5902V32.5902C44.429 32.5902 46.9688 34.0293 48.7177 36.8475C50.507 39.7307 51.4974 44.1148 51.4974 49.9902H53.4974ZM41.0574 30.5902C36.9874 30.5902 33.8259 32.3928 31.7353 35.7969C29.686 39.1337 28.6974 43.9486 28.6974 49.9902H30.6974C30.6974 44.1118 31.6688 39.7268 33.4396 36.8436C35.1689 34.0277 37.6874 32.5902 41.0574 32.5902V30.5902ZM28.6974 49.9902C28.6974 56.0315 29.6859 60.828 31.7368 64.146C33.8298 67.5321 36.9924 69.3102 41.0574 69.3102V67.3102C37.6824 67.3102 35.165 65.8883 33.438 63.0944C31.669 60.2324 30.6974 55.869 30.6974 49.9902H28.6974ZM41.0574 69.3102C45.1254 69.3102 48.3052 67.5098 50.4163 64.1188C52.4876 60.7919 53.4974 55.9958 53.4974 49.9902H51.4974C51.4974 55.8246 50.5073 60.1886 48.7185 63.0617C46.9697 65.8707 44.4294 67.3102 41.0574 67.3102V69.3102ZM106.042 77.9902V78.9902H107.042V77.9902H106.042ZM68.6018 77.9902H67.6018V78.9902H68.6018V77.9902ZM68.6018 69.7502L67.8846 69.0534L67.6018 69.3444V69.7502H68.6018ZM87.7218 50.0702L88.4391 50.7671L88.4481 50.7576L87.7218 50.0702ZM77.4818 38.1502L76.9761 39.0129L77.9331 39.5739L78.3922 38.564L77.4818 38.1502ZM68.2018 32.7102L67.2927 32.2936L66.916 33.1156L67.6961 33.5729L68.2018 32.7102ZM99.7218 25.6702L99.0574 26.4177L99.0669 26.4259L99.7218 25.6702ZM85.0018 67.3502L84.2947 66.6431L82.5876 68.3502H85.0018V67.3502ZM106.042 67.3502H107.042V66.3502H106.042V67.3502ZM106.042 76.9902H68.6018V78.9902H106.042V76.9902ZM69.6018 77.9902V69.7502H67.6018V77.9902H69.6018ZM69.319 70.4471L88.439 50.7671L87.0046 49.3734L67.8846 69.0534L69.319 70.4471ZM88.4481 50.7576C90.6012 48.4826 92.2573 46.3586 93.3798 44.3969C94.4986 42.4414 95.1218 40.5872 95.1218 38.8702H93.1218C93.1218 40.1133 92.665 41.619 91.6438 43.4036C90.6263 45.1819 89.0824 47.1778 86.9955 49.3828L88.4481 50.7576ZM95.1218 38.8702C95.1218 36.4323 94.2746 34.3456 92.7734 32.8676C91.2745 31.392 89.192 30.5902 86.8418 30.5902V32.5902C88.7315 32.5902 90.2891 33.2285 91.3702 34.2928C92.449 35.3549 93.1218 36.9082 93.1218 38.8702H95.1218ZM86.8418 30.5902C84.5431 30.5902 82.4973 31.179 80.749 32.4005C79.0082 33.6168 77.6263 35.4156 76.5714 37.7364L78.3922 38.564C79.3373 36.4848 80.5153 35.0036 81.8946 34.04C83.2663 33.0815 84.9005 32.5902 86.8418 32.5902V30.5902ZM77.9875 37.2875L68.7075 31.8475L67.6961 33.5729L76.9761 39.0129L77.9875 37.2875ZM69.1109 33.1269C72.4611 25.8173 79.136 21.8702 86.6818 21.8702V19.8702C78.3876 19.8702 70.9825 24.2431 67.2927 32.2936L69.1109 33.1269ZM86.6818 21.8702C91.4937 21.8702 95.6527 23.3912 99.0574 26.4176L100.386 24.9228C96.5909 21.5493 91.9499 19.8702 86.6818 19.8702V21.8702ZM99.0669 26.4259C102.419 29.3315 104.162 33.3606 104.162 38.4702H106.162C106.162 32.8598 104.224 28.249 100.377 24.9145L99.0669 26.4259ZM104.162 38.4702C104.162 43.9389 101.319 49.6193 95.2547 55.6831L96.6689 57.0973C102.925 50.8412 106.162 44.6815 106.162 38.4702H104.162ZM95.2547 55.6831L84.2947 66.6431L85.7089 68.0573L96.6689 57.0973L95.2547 55.6831ZM85.0018 68.3502H106.042V66.3502H85.0018V68.3502ZM105.042 67.3502V77.9902H107.042V67.3502H105.042Z" fill="white" fill-opacity="0.5" mask="url(#path-2-outside-1_386_4208)"/>
</svg>
