<svg width="247" height="235" viewBox="0 0 247 235" fill="none" xmlns="http://www.w3.org/2000/svg">
<path fill-rule="evenodd" clip-rule="evenodd" d="M0 0H237V108.208L246.896 117.501L237 126.794V235H0V0Z" fill="#0065A9"/>
<mask id="path-2-outside-1_386_4215" maskUnits="userSpaceOnUse" x="16.2383" y="18.9902" width="91" height="62" fill="black">
<rect fill="white" x="16.2383" y="18.9902" width="91" height="62"/>
<path d="M40.4383 79.1102C33.4783 79.1102 27.9583 76.4702 23.9583 71.1902C20.0383 65.8302 18.0383 58.7902 18.0383 49.9902C18.0383 41.1902 20.0383 34.1502 23.9583 28.8702C27.9583 23.5102 33.4783 20.8702 40.4383 20.8702C47.4783 20.8702 52.9983 23.5102 56.9183 28.8702C60.8383 34.1502 62.8383 41.1902 62.8383 49.9902C62.8383 58.7902 60.8383 65.8302 56.9183 71.1902C52.9983 76.4702 47.4783 79.1102 40.4383 79.1102ZM51.8783 49.9902C51.8783 38.0702 47.8783 31.5902 40.4383 31.5902C32.9983 31.5902 29.0783 38.0702 29.0783 49.9902C29.0783 61.9102 32.9983 68.3102 40.4383 68.3102C47.8783 68.3102 51.8783 61.8302 51.8783 49.9902ZM103.683 31.1102L93.2033 44.7102C100.803 46.9502 106.003 52.7902 106.003 60.7102C106.003 66.4702 104.083 70.9502 100.163 74.2302C96.3233 77.5102 91.6033 79.1102 86.0033 79.1102C77.2833 79.1102 69.9233 75.0302 66.8033 67.2702L76.2433 61.8302C77.6033 66.1502 80.8833 68.3102 86.0033 68.3102C91.6833 68.3102 94.9633 65.4302 94.9633 60.7102C94.9633 56.1502 91.6833 53.1102 86.0033 53.1102H83.6033L79.3633 46.7102L90.4033 32.3102H68.4833V21.9902H103.683V31.1102Z"/>
</mask>
<path d="M23.9583 71.1902L23.1511 71.7806L23.1561 71.7874L23.1612 71.7941L23.9583 71.1902ZM23.9583 28.8702L23.1568 28.2721L23.1554 28.2741L23.9583 28.8702ZM56.9183 28.8702L56.1111 29.4606L56.1154 29.4663L56.9183 28.8702ZM56.9183 71.1902L57.7212 71.7864L57.7255 71.7806L56.9183 71.1902ZM40.4383 78.1102C33.7706 78.1102 28.5542 75.6008 24.7554 70.5864L23.1612 71.7941C27.3624 77.3397 33.1859 80.1102 40.4383 80.1102V78.1102ZM24.7655 70.5999C21.0035 65.456 19.0383 58.6411 19.0383 49.9902H17.0383C17.0383 58.9393 19.0731 66.2045 23.1511 71.7806L24.7655 70.5999ZM19.0383 49.9902C19.0383 41.3372 21.0044 34.5265 24.7612 29.4663L23.1554 28.2741C19.0722 33.7739 17.0383 41.0432 17.0383 49.9902H19.0383ZM24.7597 29.4683C28.5583 24.3782 33.7721 21.8702 40.4383 21.8702V19.8702C33.1844 19.8702 27.3582 22.6423 23.1568 28.2721L24.7597 29.4683ZM40.4383 21.8702C47.1885 21.8702 52.396 24.3808 56.1111 29.4606L57.7255 28.2799C53.6005 22.6397 47.768 19.8702 40.4383 19.8702V21.8702ZM56.1154 29.4663C59.8722 34.5265 61.8383 41.3372 61.8383 49.9902H63.8383C63.8383 41.0432 61.8044 33.7739 57.7212 28.2741L56.1154 29.4663ZM61.8383 49.9902C61.8383 58.6411 59.8731 65.456 56.1111 70.5999L57.7255 71.7806C61.8035 66.2045 63.8383 58.9393 63.8383 49.9902H61.8383ZM56.1154 70.5941C52.4002 75.5982 47.19 78.1102 40.4383 78.1102V80.1102C47.7665 80.1102 53.5963 77.3423 57.7212 71.7863L56.1154 70.5941ZM52.8783 49.9902C52.8783 43.9456 51.8688 39.1298 49.798 35.7929C47.6869 32.3911 44.5067 30.5902 40.4383 30.5902V32.5902C43.8099 32.5902 46.3497 34.0293 48.0986 36.8475C49.8878 39.7307 50.8783 44.1148 50.8783 49.9902H52.8783ZM40.4383 30.5902C36.3683 30.5902 33.2068 32.3928 31.1162 35.7969C29.0669 39.1337 28.0783 43.9486 28.0783 49.9902H30.0783C30.0783 44.1118 31.0497 39.7268 32.8204 36.8436C34.5498 34.0277 37.0683 32.5902 40.4383 32.5902V30.5902ZM28.0783 49.9902C28.0783 56.0315 29.0667 60.828 31.1177 64.146C33.2107 67.5321 36.3733 69.3102 40.4383 69.3102V67.3102C37.0633 67.3102 34.5459 65.8883 32.8189 63.0944C31.0498 60.2324 30.0783 55.869 30.0783 49.9902H28.0783ZM40.4383 69.3102C44.5063 69.3102 47.686 67.5098 49.7972 64.1188C51.8684 60.7919 52.8783 55.9958 52.8783 49.9902H50.8783C50.8783 55.8246 49.8881 60.1886 48.0994 63.0617C46.3505 65.8707 43.8103 67.3102 40.4383 67.3102V69.3102ZM103.683 31.1102L104.475 31.7206L104.683 31.4508V31.1102H103.683ZM93.2033 44.7102L92.4112 44.0998L91.5198 45.2566L92.9206 45.6694L93.2033 44.7102ZM100.163 74.2302L99.5215 73.4633L99.5138 73.4699L100.163 74.2302ZM66.8033 67.2702L66.304 66.4038L65.5515 66.8375L65.8755 67.6433L66.8033 67.2702ZM76.2433 61.8302L77.1971 61.5299L76.8231 60.3419L75.744 60.9638L76.2433 61.8302ZM83.6033 53.1102L82.7696 53.6625L83.0662 54.1102H83.6033V53.1102ZM79.3633 46.7102L78.5697 46.1018L78.1357 46.6679L78.5296 47.2625L79.3633 46.7102ZM90.4033 32.3102L91.1969 32.9187L92.43 31.3102H90.4033V32.3102ZM68.4833 32.3102H67.4833V33.3102H68.4833V32.3102ZM68.4833 21.9902V20.9902H67.4833V21.9902H68.4833ZM103.683 21.9902H104.683V20.9902H103.683V21.9902ZM102.891 30.4998L92.4112 44.0998L93.9954 45.3206L104.475 31.7206L102.891 30.4998ZM92.9206 45.6694C100.173 47.807 105.003 53.3097 105.003 60.7102H107.003C107.003 52.2707 101.434 46.0935 93.486 43.751L92.9206 45.6694ZM105.003 60.7102C105.003 66.2197 103.182 70.4007 99.5216 73.4633L100.805 74.9972C104.985 71.4998 107.003 66.7208 107.003 60.7102H105.003ZM99.5138 73.4699C95.8788 76.5748 91.3986 78.1102 86.0033 78.1102V80.1102C91.808 80.1102 96.7678 78.4457 100.813 74.9906L99.5138 73.4699ZM86.0033 78.1102C77.6007 78.1102 70.6675 74.2007 67.7311 66.8972L65.8755 67.6433C69.179 75.8598 76.9658 80.1102 86.0033 80.1102V78.1102ZM67.3026 68.1367L76.7426 62.6967L75.744 60.9638L66.304 66.4038L67.3026 68.1367ZM75.2894 62.1305C76.0273 64.4742 77.3116 66.2985 79.1609 67.5239C80.9987 68.7415 83.3072 69.3102 86.0033 69.3102V67.3102C83.5794 67.3102 81.6879 66.799 80.2656 65.8566C78.8549 64.9219 77.8193 63.5062 77.1971 61.5299L75.2894 62.1305ZM86.0033 69.3102C89.0015 69.3102 91.4996 68.5503 93.2637 67.0398C95.0479 65.5121 95.9633 63.3168 95.9633 60.7102H93.9633C93.9633 62.8236 93.2386 64.4283 91.9629 65.5206C90.667 66.6302 88.6851 67.3102 86.0033 67.3102V69.3102ZM95.9633 60.7102C95.9633 58.1758 95.043 55.9873 93.2693 54.4455C91.5108 52.9168 89.0145 52.1102 86.0033 52.1102V54.1102C88.6721 54.1102 90.6558 54.8236 91.9572 55.9549C93.2436 57.0731 93.9633 58.6846 93.9633 60.7102H95.9633ZM86.0033 52.1102H83.6033V54.1102H86.0033V52.1102ZM84.4369 52.5579L80.1969 46.1579L78.5296 47.2625L82.7696 53.6625L84.4369 52.5579ZM80.1569 47.3187L91.1969 32.9187L89.6097 31.7018L78.5697 46.1018L80.1569 47.3187ZM90.4033 31.3102H68.4833V33.3102H90.4033V31.3102ZM69.4833 32.3102V21.9902H67.4833V32.3102H69.4833ZM68.4833 22.9902H103.683V20.9902H68.4833V22.9902ZM102.683 21.9902V31.1102H104.683V21.9902H102.683Z" fill="white" fill-opacity="0.5" mask="url(#path-2-outside-1_386_4215)"/>
</svg>
