<svg width="247" height="235" viewBox="0 0 247 235" fill="none" xmlns="http://www.w3.org/2000/svg">
<path fill-rule="evenodd" clip-rule="evenodd" d="M247 0H10V108.208L0.104492 117.501L10 126.794V235H247V0Z" fill="#FF611A"/>
<mask id="path-2-outside-1_386_4237" maskUnits="userSpaceOnUse" x="32" y="19" width="98" height="62" fill="black">
<rect fill="white" x="32" y="19" width="98" height="62"/>
<path d="M56.2 79.12C49.24 79.12 43.72 76.48 39.72 71.2C35.8 65.84 33.8 58.8 33.8 50C33.8 41.2 35.8 34.16 39.72 28.88C43.72 23.52 49.24 20.88 56.2 20.88C63.24 20.88 68.76 23.52 72.68 28.88C76.6 34.16 78.6 41.2 78.6 50C78.6 58.8 76.6 65.84 72.68 71.2C68.76 76.48 63.24 79.12 56.2 79.12ZM67.64 50C67.64 38.08 63.64 31.6 56.2 31.6C48.76 31.6 44.84 38.08 44.84 50C44.84 61.92 48.76 68.32 56.2 68.32C63.64 68.32 67.64 61.84 67.64 50ZM122.271 58.24H128.271V68.48H122.271V78H111.151V68.48H84.6706V58.24L103.311 22H115.151L96.5906 58.24H111.151V44.96H122.271V58.24Z"/>
</mask>
<path d="M39.72 71.2L38.9128 71.7903L38.9178 71.7971L38.9229 71.8039L39.72 71.2ZM39.72 28.88L38.9186 28.2819L38.9171 28.2839L39.72 28.88ZM72.68 28.88L71.8728 29.4703L71.8771 29.4761L72.68 28.88ZM72.68 71.2L73.4829 71.7961L73.4872 71.7903L72.68 71.2ZM56.2 78.12C49.5324 78.12 44.3159 75.6106 40.5171 70.5961L38.9229 71.8039C43.1241 77.3494 48.9476 80.12 56.2 80.12V78.12ZM40.5272 70.6097C36.7652 65.4658 34.8 58.6509 34.8 50H32.8C32.8 58.9491 34.8348 66.2142 38.9128 71.7903L40.5272 70.6097ZM34.8 50C34.8 41.347 36.7661 34.5363 40.5229 29.4761L38.9171 28.2839C34.8339 33.7837 32.8 41.053 32.8 50H34.8ZM40.5214 29.4781C44.32 24.3879 49.5339 21.88 56.2 21.88V19.88C48.9461 19.88 43.12 22.652 38.9186 28.2819L40.5214 29.4781ZM56.2 21.88C62.9503 21.88 68.1578 24.3905 71.8728 29.4703L73.4872 28.2897C69.3622 22.6495 63.5298 19.88 56.2 19.88V21.88ZM71.8771 29.4761C75.6339 34.5363 77.6 41.347 77.6 50H79.6C79.6 41.053 77.5661 33.7837 73.4829 28.2839L71.8771 29.4761ZM77.6 50C77.6 58.6509 75.6348 65.4658 71.8728 70.6097L73.4872 71.7903C77.5652 66.2142 79.6 58.9491 79.6 50H77.6ZM71.8771 70.6039C68.1619 75.608 62.9517 78.12 56.2 78.12V80.12C63.5283 80.12 69.3581 77.352 73.4829 71.7961L71.8771 70.6039ZM68.64 50C68.64 43.9554 67.6305 39.1396 65.5597 35.8027C63.4486 32.4009 60.2684 30.6 56.2 30.6V32.6C59.5716 32.6 62.1114 34.0391 63.8603 36.8573C65.6495 39.7404 66.64 44.1246 66.64 50H68.64ZM56.2 30.6C52.13 30.6 48.9685 32.4025 46.8779 35.8067C44.8286 39.1434 43.84 43.9584 43.84 50H45.84C45.84 44.1216 46.8114 39.7365 48.5821 36.8533C50.3115 34.0375 52.83 32.6 56.2 32.6V30.6ZM43.84 50C43.84 56.0413 44.8285 60.8378 46.8794 64.1558C48.9724 67.5419 52.135 69.32 56.2 69.32V67.32C52.825 67.32 50.3076 65.8981 48.5806 63.1042C46.8115 60.2422 45.84 55.8787 45.84 50H43.84ZM56.2 69.32C60.268 69.32 63.4477 67.5195 65.5589 64.1285C67.6302 60.8017 68.64 56.0056 68.64 50H66.64C66.64 55.8344 65.6498 60.1983 63.8611 63.0715C62.1123 65.8805 59.572 67.32 56.2 67.32V69.32ZM122.271 58.24H121.271V59.24H122.271V58.24ZM128.271 58.24H129.271V57.24H128.271V58.24ZM128.271 68.48V69.48H129.271V68.48H128.271ZM122.271 68.48V67.48H121.271V68.48H122.271ZM122.271 78V79H123.271V78H122.271ZM111.151 78H110.151V79H111.151V78ZM111.151 68.48H112.151V67.48H111.151V68.48ZM84.6706 68.48H83.6706V69.48H84.6706V68.48ZM84.6706 58.24L83.7814 57.7826L83.6706 57.9979V58.24H84.6706ZM103.311 22V21H102.7L102.421 21.5426L103.311 22ZM115.151 22L116.041 22.4558L116.786 21H115.151V22ZM96.5906 58.24L95.7006 57.7842L94.955 59.24H96.5906V58.24ZM111.151 58.24V59.24H112.151V58.24H111.151ZM111.151 44.96V43.96H110.151V44.96H111.151ZM122.271 44.96H123.271V43.96H122.271V44.96ZM122.271 59.24H128.271V57.24H122.271V59.24ZM127.271 58.24V68.48H129.271V58.24H127.271ZM128.271 67.48H122.271V69.48H128.271V67.48ZM121.271 68.48V78H123.271V68.48H121.271ZM122.271 77H111.151V79H122.271V77ZM112.151 78V68.48H110.151V78H112.151ZM111.151 67.48H84.6706V69.48H111.151V67.48ZM85.6706 68.48V58.24H83.6706V68.48H85.6706ZM85.5599 58.6974L104.2 22.4574L102.421 21.5426L83.7814 57.7826L85.5599 58.6974ZM103.311 23H115.151V21H103.311V23ZM114.261 21.5442L95.7006 57.7842L97.4807 58.6958L116.041 22.4558L114.261 21.5442ZM96.5906 59.24H111.151V57.24H96.5906V59.24ZM112.151 58.24V44.96H110.151V58.24H112.151ZM111.151 45.96H122.271V43.96H111.151V45.96ZM121.271 44.96V58.24H123.271V44.96H121.271Z" fill="white" fill-opacity="0.5" mask="url(#path-2-outside-1_386_4237)"/>
</svg>
