<svg width="248" height="235" viewBox="0 0 248 235" fill="none" xmlns="http://www.w3.org/2000/svg">
<path fill-rule="evenodd" clip-rule="evenodd" d="M248 0H11V107.827L0.486328 117.719L11 127.611V235H248V0Z" fill="#F09720"/>
<mask id="path-2-outside-1_386_4231" maskUnits="userSpaceOnUse" x="32" y="19" width="93" height="62" fill="black">
<rect fill="white" x="32" y="19" width="93" height="62"/>
<path d="M56.2 79.12C49.24 79.12 43.72 76.48 39.72 71.2C35.8 65.84 33.8 58.8 33.8 50C33.8 41.2 35.8 34.16 39.72 28.88C43.72 23.52 49.24 20.88 56.2 20.88C63.24 20.88 68.76 23.52 72.68 28.88C76.6 34.16 78.6 41.2 78.6 50C78.6 58.8 76.6 65.84 72.68 71.2C68.76 76.48 63.24 79.12 56.2 79.12ZM67.64 50C67.64 38.08 63.64 31.6 56.2 31.6C48.76 31.6 44.84 38.08 44.84 50C44.84 61.92 48.76 68.32 56.2 68.32C63.64 68.32 67.64 61.84 67.64 50ZM99.0056 42.4H104.766C110.126 42.4 114.686 44 118.366 47.28C122.046 50.48 123.886 54.96 123.886 60.72C123.886 66.48 121.966 70.96 118.046 74.24C114.206 77.52 109.486 79.12 103.886 79.12C94.8456 79.12 87.4856 75.04 84.3656 67.12L93.8056 61.6C95.1656 66.08 98.5256 68.32 103.886 68.32C109.566 68.32 112.846 65.44 112.846 60.72C112.846 56.16 109.566 53.12 104.206 53.12H87.2456L89.4856 22H121.246V32.32H99.7256L99.0056 42.4Z"/>
</mask>
<path d="M39.72 71.2L38.9128 71.7903L38.9178 71.7971L38.9229 71.8039L39.72 71.2ZM39.72 28.88L38.9186 28.2819L38.9171 28.2839L39.72 28.88ZM72.68 28.88L71.8728 29.4703L71.8771 29.4761L72.68 28.88ZM72.68 71.2L73.4829 71.7961L73.4872 71.7903L72.68 71.2ZM56.2 78.12C49.5324 78.12 44.3159 75.6106 40.5171 70.5961L38.9229 71.8039C43.1241 77.3494 48.9476 80.12 56.2 80.12V78.12ZM40.5272 70.6097C36.7652 65.4658 34.8 58.6509 34.8 50H32.8C32.8 58.9491 34.8348 66.2142 38.9128 71.7903L40.5272 70.6097ZM34.8 50C34.8 41.347 36.7661 34.5363 40.5229 29.4761L38.9171 28.2839C34.8339 33.7837 32.8 41.053 32.8 50H34.8ZM40.5214 29.4781C44.32 24.3879 49.5339 21.88 56.2 21.88V19.88C48.9461 19.88 43.12 22.652 38.9186 28.2819L40.5214 29.4781ZM56.2 21.88C62.9503 21.88 68.1578 24.3905 71.8728 29.4703L73.4872 28.2897C69.3622 22.6495 63.5298 19.88 56.2 19.88V21.88ZM71.8771 29.4761C75.6339 34.5363 77.6 41.347 77.6 50H79.6C79.6 41.053 77.5661 33.7837 73.4829 28.2839L71.8771 29.4761ZM77.6 50C77.6 58.6509 75.6348 65.4658 71.8728 70.6097L73.4872 71.7903C77.5652 66.2142 79.6 58.9491 79.6 50H77.6ZM71.8771 70.6039C68.1619 75.608 62.9517 78.12 56.2 78.12V80.12C63.5283 80.12 69.3581 77.352 73.4829 71.7961L71.8771 70.6039ZM68.64 50C68.64 43.9554 67.6305 39.1396 65.5597 35.8027C63.4486 32.4009 60.2684 30.6 56.2 30.6V32.6C59.5716 32.6 62.1114 34.0391 63.8603 36.8573C65.6495 39.7404 66.64 44.1246 66.64 50H68.64ZM56.2 30.6C52.13 30.6 48.9685 32.4025 46.8779 35.8067C44.8286 39.1434 43.84 43.9584 43.84 50H45.84C45.84 44.1216 46.8114 39.7365 48.5821 36.8533C50.3115 34.0375 52.83 32.6 56.2 32.6V30.6ZM43.84 50C43.84 56.0413 44.8285 60.8378 46.8794 64.1558C48.9724 67.5419 52.135 69.32 56.2 69.32V67.32C52.825 67.32 50.3076 65.8981 48.5806 63.1042C46.8115 60.2422 45.84 55.8787 45.84 50H43.84ZM56.2 69.32C60.268 69.32 63.4477 67.5195 65.5589 64.1285C67.6302 60.8017 68.64 56.0056 68.64 50H66.64C66.64 55.8344 65.6498 60.1983 63.8611 63.0715C62.1123 65.8805 59.572 67.32 56.2 67.32V69.32ZM99.0056 42.4L98.0082 42.3288L97.9316 43.4H99.0056V42.4ZM118.366 47.28L117.7 48.0266L117.709 48.0346L118.366 47.28ZM118.046 74.24L117.404 73.473L117.396 73.4796L118.046 74.24ZM84.3656 67.12L83.8608 66.2568L83.1212 66.6893L83.4352 67.4865L84.3656 67.12ZM93.8056 61.6L94.7625 61.3095L94.3945 60.0972L93.3008 60.7368L93.8056 61.6ZM87.2456 53.12L86.2482 53.0482L86.1711 54.12H87.2456V53.12ZM89.4856 22V21H88.555L88.4882 21.9282L89.4856 22ZM121.246 22H122.246V21H121.246V22ZM121.246 32.32V33.32H122.246V32.32H121.246ZM99.7256 32.32V31.32H98.7945L98.7282 32.2487L99.7256 32.32ZM99.0056 43.4H104.766V41.4H99.0056V43.4ZM104.766 43.4C109.911 43.4 114.225 44.9294 117.7 48.0265L119.031 46.5335C115.146 43.0706 110.34 41.4 104.766 41.4V43.4ZM117.709 48.0346C121.131 51.0098 122.886 55.1917 122.886 60.72H124.886C124.886 54.7283 122.96 49.9502 119.022 46.5254L117.709 48.0346ZM122.886 60.72C122.886 66.2295 121.064 70.4105 117.404 73.4731L118.687 75.0069C122.867 71.5095 124.886 66.7305 124.886 60.72H122.886ZM117.396 73.4796C113.761 76.5845 109.281 78.12 103.886 78.12V80.12C109.69 80.12 114.65 78.4555 118.695 75.0004L117.396 73.4796ZM103.886 78.12C95.1578 78.12 88.2323 74.2071 85.296 66.7535L83.4352 67.4865C86.739 75.8729 94.5334 80.12 103.886 80.12V78.12ZM84.8704 67.9832L94.3104 62.4632L93.3008 60.7368L83.8608 66.2568L84.8704 67.9832ZM92.8487 61.8905C93.5848 64.315 94.8882 66.2036 96.7909 67.472C98.681 68.7321 101.072 69.32 103.886 69.32V67.32C101.34 67.32 99.3702 66.7879 97.9003 65.8079C96.4431 64.8364 95.3865 63.365 94.7625 61.3095L92.8487 61.8905ZM103.886 69.32C106.884 69.32 109.382 68.56 111.146 67.0496C112.93 65.5219 113.846 63.3266 113.846 60.72H111.846C111.846 62.8334 111.121 64.4381 109.845 65.5304C108.549 66.64 106.567 67.32 103.886 67.32V69.32ZM113.846 60.72C113.846 58.187 112.927 56.004 111.202 54.464C109.487 52.934 107.07 52.12 104.206 52.12V54.12C106.701 54.12 108.604 54.826 109.87 55.956C111.124 57.076 111.846 58.693 111.846 60.72H113.846ZM104.206 52.12H87.2456V54.12H104.206V52.12ZM88.243 53.1918L90.483 22.0718L88.4882 21.9282L86.2482 53.0482L88.243 53.1918ZM89.4856 23H121.246V21H89.4856V23ZM120.246 22V32.32H122.246V22H120.246ZM121.246 31.32H99.7256V33.32H121.246V31.32ZM98.7282 32.2487L98.0082 42.3288L100.003 42.4712L100.723 32.3912L98.7282 32.2487Z" fill="white" fill-opacity="0.5" mask="url(#path-2-outside-1_386_4231)"/>
</svg>
