<svg width="248" height="235" viewBox="0 0 248 235" fill="none" xmlns="http://www.w3.org/2000/svg">
<path fill-rule="evenodd" clip-rule="evenodd" d="M248 0H11V107.985L0.867188 117.501L11 127.017V235H243C245.761 235 248 232.761 248 230V0Z" fill="#008444"/>
<mask id="path-2-outside-1_386_4225" maskUnits="userSpaceOnUse" x="33" y="19" width="95" height="62" fill="black">
<rect fill="white" x="33" y="19" width="95" height="62"/>
<path d="M57.2 79.12C50.24 79.12 44.72 76.48 40.72 71.2C36.8 65.84 34.8 58.8 34.8 50C34.8 41.2 36.8 34.16 40.72 28.88C44.72 23.52 50.24 20.88 57.2 20.88C64.24 20.88 69.76 23.52 73.68 28.88C77.6 34.16 79.6 41.2 79.6 50C79.6 58.8 77.6 65.84 73.68 71.2C69.76 76.48 64.24 79.12 57.2 79.12ZM68.64 50C68.64 38.08 64.64 31.6 57.2 31.6C49.76 31.6 45.84 38.08 45.84 50C45.84 61.92 49.76 68.32 57.2 68.32C64.64 68.32 68.64 61.84 68.64 50ZM119.191 22L106.791 40.16C112.631 40.32 117.351 42.24 120.951 45.84C124.551 49.44 126.391 54 126.391 59.6C126.391 65.28 124.471 70 120.711 73.68C116.951 77.28 112.071 79.12 106.071 79.12C100.071 79.12 95.1906 77.28 91.4306 73.68C87.6706 70.08 85.8306 65.36 85.8306 59.6C85.8306 55.36 86.9506 51.6 89.1106 48.32L106.551 22H119.191ZM115.431 59.6C115.431 54.16 111.431 50.56 106.071 50.56C100.711 50.56 96.7906 54.08 96.7906 59.6C96.7906 65.12 100.711 68.72 106.071 68.72C111.431 68.72 115.431 65.12 115.431 59.6Z"/>
</mask>
<path d="M40.72 71.2L39.9128 71.7903L39.9178 71.7971L39.9229 71.8039L40.72 71.2ZM40.72 28.88L39.9186 28.2819L39.9171 28.2839L40.72 28.88ZM73.68 28.88L72.8728 29.4703L72.8771 29.4761L73.68 28.88ZM73.68 71.2L74.4829 71.7961L74.4872 71.7903L73.68 71.2ZM57.2 78.12C50.5324 78.12 45.3159 75.6106 41.5171 70.5961L39.9229 71.8039C44.1241 77.3494 49.9476 80.12 57.2 80.12V78.12ZM41.5272 70.6097C37.7652 65.4658 35.8 58.6509 35.8 50H33.8C33.8 58.9491 35.8348 66.2142 39.9128 71.7903L41.5272 70.6097ZM35.8 50C35.8 41.347 37.7661 34.5363 41.5229 29.4761L39.9171 28.2839C35.8339 33.7837 33.8 41.053 33.8 50H35.8ZM41.5214 29.4781C45.32 24.3879 50.5339 21.88 57.2 21.88V19.88C49.9461 19.88 44.12 22.652 39.9186 28.2819L41.5214 29.4781ZM57.2 21.88C63.9503 21.88 69.1578 24.3905 72.8728 29.4703L74.4872 28.2897C70.3622 22.6495 64.5298 19.88 57.2 19.88V21.88ZM72.8771 29.4761C76.6339 34.5363 78.6 41.347 78.6 50H80.6C80.6 41.053 78.5661 33.7837 74.4829 28.2839L72.8771 29.4761ZM78.6 50C78.6 58.6509 76.6348 65.4658 72.8728 70.6097L74.4872 71.7903C78.5652 66.2142 80.6 58.9491 80.6 50H78.6ZM72.8771 70.6039C69.1619 75.608 63.9517 78.12 57.2 78.12V80.12C64.5283 80.12 70.3581 77.352 74.4829 71.7961L72.8771 70.6039ZM69.64 50C69.64 43.9554 68.6305 39.1396 66.5597 35.8027C64.4486 32.4009 61.2684 30.6 57.2 30.6V32.6C60.5716 32.6 63.1114 34.0391 64.8603 36.8573C66.6495 39.7404 67.64 44.1246 67.64 50H69.64ZM57.2 30.6C53.13 30.6 49.9685 32.4025 47.8779 35.8067C45.8286 39.1434 44.84 43.9584 44.84 50H46.84C46.84 44.1216 47.8114 39.7365 49.5821 36.8533C51.3115 34.0375 53.83 32.6 57.2 32.6V30.6ZM44.84 50C44.84 56.0413 45.8285 60.8378 47.8794 64.1558C49.9724 67.5419 53.135 69.32 57.2 69.32V67.32C53.825 67.32 51.3076 65.8981 49.5806 63.1042C47.8115 60.2422 46.84 55.8787 46.84 50H44.84ZM57.2 69.32C61.268 69.32 64.4477 67.5195 66.5589 64.1285C68.6302 60.8017 69.64 56.0056 69.64 50H67.64C67.64 55.8344 66.6498 60.1983 64.8611 63.0715C63.1123 65.8805 60.572 67.32 57.2 67.32V69.32ZM119.191 22L120.016 22.5639L121.084 21H119.191V22ZM106.791 40.16L105.965 39.5961L104.931 41.1094L106.763 41.1596L106.791 40.16ZM120.951 45.84L120.244 46.5471L120.951 45.84ZM120.711 73.68L121.402 74.4024L121.41 74.3947L120.711 73.68ZM91.4306 73.68L90.7391 74.4023L91.4306 73.68ZM89.1106 48.32L88.277 47.7676L88.2755 47.77L89.1106 48.32ZM106.551 22V21H106.014L105.717 21.4476L106.551 22ZM118.365 21.4361L105.965 39.5961L107.616 40.7239L120.016 22.5639L118.365 21.4361ZM106.763 41.1596C112.383 41.3136 116.848 43.1513 120.244 46.5471L121.658 45.1329C117.854 41.3287 112.879 39.3264 106.818 39.1604L106.763 41.1596ZM120.244 46.5471C123.641 49.9451 125.391 54.244 125.391 59.6H127.391C127.391 53.756 125.46 48.9349 121.658 45.1329L120.244 46.5471ZM125.391 59.6C125.391 65.0315 123.565 69.4873 120.011 72.9653L121.41 74.3947C125.376 70.5127 127.391 65.5285 127.391 59.6H125.391ZM120.019 72.9577C116.47 76.3555 111.85 78.12 106.071 78.12V80.12C112.291 80.12 117.431 78.2045 121.402 74.4023L120.019 72.9577ZM106.071 78.12C100.291 78.12 95.6711 76.3555 92.1222 72.9577L90.7391 74.4023C94.7102 78.2045 99.8497 80.12 106.071 80.12V78.12ZM92.1222 72.9577C88.5863 69.5723 86.8306 65.1272 86.8306 59.6H84.8306C84.8306 65.5928 86.7549 70.5877 90.7391 74.4023L92.1222 72.9577ZM86.8306 59.6C86.8306 55.5463 87.8983 51.9792 89.9458 48.87L88.2755 47.77C86.003 51.2208 84.8306 55.1737 84.8306 59.6H86.8306ZM89.9442 48.8724L107.384 22.5524L105.717 21.4476L88.277 47.7676L89.9442 48.8724ZM106.551 23H119.191V21H106.551V23ZM116.431 59.6C116.431 56.6232 115.33 54.0945 113.448 52.3136C111.571 50.538 108.976 49.56 106.071 49.56V51.56C108.525 51.56 110.61 52.382 112.073 53.7664C113.531 55.1455 114.431 57.1368 114.431 59.6H116.431ZM106.071 49.56C103.171 49.56 100.592 50.5149 98.7313 52.2855C96.8646 54.0618 95.7906 56.5925 95.7906 59.6H97.7906C97.7906 57.0875 98.6767 55.0982 100.11 53.7344C101.549 52.3651 103.611 51.56 106.071 51.56V49.56ZM95.7906 59.6C95.7906 62.6065 96.8637 65.1548 98.7267 66.9501C100.585 68.7411 103.164 69.72 106.071 69.72V67.72C103.617 67.72 101.556 66.8989 100.115 65.5099C98.6775 64.1252 97.7906 62.1135 97.7906 59.6H95.7906ZM106.071 69.72C108.976 69.72 111.573 68.7418 113.45 66.9542C115.333 65.1615 116.431 62.6127 116.431 59.6H114.431C114.431 62.1073 113.528 64.1185 112.071 65.5058C110.609 66.8982 108.525 67.72 106.071 67.72V69.72Z" fill="white" fill-opacity="0.5" mask="url(#path-2-outside-1_386_4225)"/>
</svg>
