<svg width="248" height="235" viewBox="0 0 248 235" fill="none" xmlns="http://www.w3.org/2000/svg">
<path fill-rule="evenodd" clip-rule="evenodd" d="M5 0H237V107.985L247.133 117.501L237 127.017V235H0V5C0 2.23858 2.23859 0 5 0Z" fill="#008444"/>
<mask id="path-2-outside-1_386_4183" maskUnits="userSpaceOnUse" x="16.4766" y="18.9902" width="76" height="62" fill="black">
<rect fill="white" x="16.4766" y="18.9902" width="76" height="62"/>
<path d="M40.6766 79.1102C33.7166 79.1102 28.1966 76.4702 24.1966 71.1902C20.2766 65.8302 18.2766 58.7902 18.2766 49.9902C18.2766 41.1902 20.2766 34.1502 24.1966 28.8702C28.1966 23.5102 33.7166 20.8702 40.6766 20.8702C47.7166 20.8702 53.2366 23.5102 57.1566 28.8702C61.0766 34.1502 63.0766 41.1902 63.0766 49.9902C63.0766 58.7902 61.0766 65.8302 57.1566 71.1902C53.2366 76.4702 47.7166 79.1102 40.6766 79.1102ZM52.1166 49.9902C52.1166 38.0702 48.1166 31.5902 40.6766 31.5902C33.2366 31.5902 29.3166 38.0702 29.3166 49.9902C29.3166 61.9102 33.2366 68.3102 40.6766 68.3102C48.1166 68.3102 52.1166 61.8302 52.1166 49.9902ZM66.7847 27.1902L81.5047 21.9902H91.1047V77.9902H80.0647V33.6702L69.5047 36.6302L66.7847 27.1902Z"/>
</mask>
<path d="M24.1966 71.1902L23.3894 71.7806L23.3944 71.7874L23.3995 71.7941L24.1966 71.1902ZM24.1966 28.8702L23.3951 28.2721L23.3937 28.2741L24.1966 28.8702ZM57.1566 28.8702L56.3494 29.4606L56.3537 29.4663L57.1566 28.8702ZM57.1566 71.1902L57.9595 71.7864L57.9637 71.7806L57.1566 71.1902ZM40.6766 78.1102C34.0089 78.1102 28.7925 75.6008 24.9937 70.5864L23.3995 71.7941C27.6007 77.3397 33.4242 80.1102 40.6766 80.1102V78.1102ZM25.0037 70.5999C21.2418 65.456 19.2766 58.6411 19.2766 49.9902H17.2766C17.2766 58.9393 19.3114 66.2045 23.3894 71.7806L25.0037 70.5999ZM19.2766 49.9902C19.2766 41.3372 21.2427 34.5265 24.9995 29.4663L23.3937 28.2741C19.3105 33.7739 17.2766 41.0432 17.2766 49.9902H19.2766ZM24.998 29.4683C28.7966 24.3782 34.0104 21.8702 40.6766 21.8702V19.8702C33.4227 19.8702 27.5965 22.6423 23.3951 28.2721L24.998 29.4683ZM40.6766 21.8702C47.4268 21.8702 52.6343 24.3808 56.3494 29.4606L57.9637 28.2799C53.8388 22.6397 48.0063 19.8702 40.6766 19.8702V21.8702ZM56.3537 29.4663C60.1105 34.5265 62.0766 41.3372 62.0766 49.9902H64.0766C64.0766 41.0432 62.0427 33.7739 57.9595 28.2741L56.3537 29.4663ZM62.0766 49.9902C62.0766 58.6411 60.1114 65.456 56.3494 70.5999L57.9637 71.7806C62.0418 66.2045 64.0766 58.9393 64.0766 49.9902H62.0766ZM56.3537 70.5941C52.6385 75.5982 47.4283 78.1102 40.6766 78.1102V80.1102C48.0048 80.1102 53.8346 77.3423 57.9595 71.7863L56.3537 70.5941ZM53.1166 49.9902C53.1166 43.9456 52.107 39.1298 50.0362 35.7929C47.9252 32.3911 44.745 30.5902 40.6766 30.5902V32.5902C44.0481 32.5902 46.588 34.0293 48.3369 36.8475C50.1261 39.7307 51.1166 44.1148 51.1166 49.9902H53.1166ZM40.6766 30.5902C36.6066 30.5902 33.4451 32.3928 31.3544 35.7969C29.3052 39.1337 28.3166 43.9486 28.3166 49.9902H30.3166C30.3166 44.1118 31.288 39.7268 33.0587 36.8436C34.7881 34.0277 37.3065 32.5902 40.6766 32.5902V30.5902ZM28.3166 49.9902C28.3166 56.0315 29.305 60.828 31.3559 64.146C33.449 67.5321 36.6116 69.3102 40.6766 69.3102V67.3102C37.3015 67.3102 34.7841 65.8883 33.0572 63.0944C31.2881 60.2324 30.3166 55.869 30.3166 49.9902H28.3166ZM40.6766 69.3102C44.7446 69.3102 47.9243 67.5098 50.0355 64.1188C52.1067 60.7919 53.1166 55.9958 53.1166 49.9902H51.1166C51.1166 55.8246 50.1264 60.1886 48.3376 63.0617C46.5888 65.8707 44.0486 67.3102 40.6766 67.3102V69.3102ZM66.7847 27.1902L66.4516 26.2473L65.5628 26.5613L65.8238 27.4671L66.7847 27.1902ZM81.5047 21.9902V20.9902H81.3332L81.1716 21.0473L81.5047 21.9902ZM91.1047 21.9902H92.1047V20.9902H91.1047V21.9902ZM91.1047 77.9902V78.9902H92.1047V77.9902H91.1047ZM80.0647 77.9902H79.0647V78.9902H80.0647V77.9902ZM80.0647 33.6702H81.0647V32.3514L79.7948 32.7073L80.0647 33.6702ZM69.5047 36.6302L68.5438 36.9071L68.8187 37.8611L69.7746 37.5931L69.5047 36.6302ZM67.1178 28.1331L81.8378 22.9331L81.1716 21.0473L66.4516 26.2473L67.1178 28.1331ZM81.5047 22.9902H91.1047V20.9902H81.5047V22.9902ZM90.1047 21.9902V77.9902H92.1047V21.9902H90.1047ZM91.1047 76.9902H80.0647V78.9902H91.1047V76.9902ZM81.0647 77.9902V33.6702H79.0647V77.9902H81.0647ZM79.7948 32.7073L69.2348 35.6673L69.7746 37.5931L80.3346 34.6331L79.7948 32.7073ZM70.4656 36.3534L67.7456 26.9134L65.8238 27.4671L68.5438 36.9071L70.4656 36.3534Z" fill="white" fill-opacity="0.5" mask="url(#path-2-outside-1_386_4183)"/>
</svg>
