<svg width="469" height="80" viewBox="0 0 469 80" fill="none" xmlns="http://www.w3.org/2000/svg">
<g style="mix-blend-mode:multiply">
<path d="M0.269531 0H438.502C455.071 0 468.502 13.4315 468.502 30V80H5.26954C2.50812 80 0.269531 77.7614 0.269531 75V0Z" fill="#008444"/>
</g>
<circle cx="38.2793" cy="40" r="20" fill="#008444" fill-opacity="0.5"/>
<path opacity="0.4" d="M38.2793 32.7185V50.1425C38.4641 50.1425 38.6597 50.1098 38.8119 50.0228L38.8554 50.0012C40.9424 48.8598 44.5836 47.6642 46.9423 47.349L47.2576 47.3055C48.301 47.175 49.1489 46.1968 49.1489 45.1533V32.0228C49.1489 30.7294 48.0945 29.7511 46.8011 29.8598C44.5185 30.0446 41.0619 31.1968 39.1272 32.4033L38.8554 32.5663C38.6924 32.6642 38.4858 32.7185 38.2793 32.7185Z" fill="white"/>
<path d="M27.4097 32.0346V45.1542C27.4097 46.1977 28.2575 47.1759 29.301 47.3064L29.6597 47.3499C32.0292 47.6651 35.6814 48.8716 37.7684 50.0238C37.9097 50.1107 38.0836 50.1434 38.2792 50.1434V32.7194C38.0727 32.7194 37.8662 32.6651 37.7031 32.5672L37.5183 32.4477C35.5836 31.2303 32.1162 30.0673 29.8336 29.8716H29.7683C28.4749 29.7629 27.4097 30.7303 27.4097 32.0346Z" fill="white"/>
<path d="M45.8879 29.9805V34.6435C45.8879 35.0783 45.4096 35.3391 45.04 35.1L43.714 34.2196L42.3879 35.1C42.0292 35.3391 41.54 35.0783 41.54 34.6435V31.2195C42.964 30.6543 44.5509 30.1979 45.8879 29.9805Z" fill="white"/>
</svg>
