<svg width="551" height="80" viewBox="0 0 551 80" fill="none" xmlns="http://www.w3.org/2000/svg">
<g style="mix-blend-mode:multiply">
<path d="M0.621094 0H520.119C536.687 0 550.119 13.4315 550.119 30V80H0.621094V0Z" fill="#0065A9"/>
</g>
<circle cx="50.5938" cy="40" r="20" fill="#0065A9" fill-opacity="0.5"/>
<path opacity="0.4" d="M50.5938 32.7185V50.1425C50.7785 50.1425 50.9742 50.1098 51.1263 50.0228L51.1699 50.0012C53.2568 48.8598 56.8981 47.6642 59.2568 47.349L59.572 47.3055C60.6155 47.175 61.4633 46.1968 61.4633 45.1533V32.0228C61.4633 30.7294 60.409 29.7511 59.1155 29.8598C56.8329 30.0446 53.3764 31.1968 51.4416 32.4033L51.1699 32.5663C51.0068 32.6642 50.8003 32.7185 50.5938 32.7185Z" fill="white"/>
<path d="M39.7241 32.0346V45.1542C39.7241 46.1977 40.5719 47.1759 41.6154 47.3064L41.9741 47.3499C44.3437 47.6651 47.9959 48.8716 50.0828 50.0238C50.2242 50.1107 50.398 50.1434 50.5937 50.1434V32.7194C50.3872 32.7194 50.1806 32.6651 50.0176 32.5672L49.8328 32.4477C47.898 31.2303 44.4306 30.0673 42.148 29.8716H42.0828C40.7893 29.7629 39.7241 30.7303 39.7241 32.0346Z" fill="white"/>
<path d="M58.2023 29.9805V34.6435C58.2023 35.0783 57.724 35.3391 57.3545 35.1L56.0284 34.2196L54.7024 35.1C54.3437 35.3391 53.8545 35.0783 53.8545 34.6435V31.2195C55.2784 30.6543 56.8654 30.1979 58.2023 29.9805Z" fill="white"/>
</svg>
