<svg width="470" height="80" viewBox="0 0 470 80" fill="none" xmlns="http://www.w3.org/2000/svg">
<g style="mix-blend-mode:multiply">
<path d="M0.621094 0H439.193C455.761 0 469.193 13.4315 469.193 30V80H0.621094V0Z" fill="#FF611A"/>
</g>
<circle cx="51" cy="40" r="20" fill="#F47730"/>
<path opacity="0.4" d="M51 32.7185V50.1425C51.1848 50.1425 51.3804 50.1098 51.5326 50.0228L51.5761 50.0011C53.6631 48.8598 57.3043 47.6642 59.663 47.349L59.9783 47.3055C61.0218 47.175 61.8696 46.1968 61.8696 45.1533V32.0228C61.8696 30.7294 60.8152 29.7511 59.5218 29.8598C57.2392 30.0446 53.7826 31.1968 51.8479 32.4033L51.5761 32.5663C51.4131 32.6642 51.2065 32.7185 51 32.7185Z" fill="white"/>
<path d="M40.1304 32.0346V45.1542C40.1304 46.1977 40.9782 47.1759 42.0217 47.3064L42.3804 47.3499C44.7499 47.6651 48.4021 48.8716 50.4891 50.0238C50.6304 50.1107 50.8043 50.1434 50.9999 50.1434V32.7194C50.7934 32.7194 50.5869 32.6651 50.4238 32.5672L50.2391 32.4477C48.3043 31.2303 44.8369 30.0673 42.5543 29.8716H42.489C41.1956 29.7629 40.1304 30.7303 40.1304 32.0346Z" fill="white"/>
<path d="M58.6086 29.9805V34.6435C58.6086 35.0783 58.1303 35.3391 57.7607 35.1L56.4347 34.2196L55.1086 35.1C54.7499 35.3391 54.2607 35.0783 54.2607 34.6435V31.2195C55.6847 30.6543 57.2716 30.1979 58.6086 29.9805Z" fill="white"/>
</svg>
