<svg width="339" height="94" viewBox="0 0 339 94" fill="none" xmlns="http://www.w3.org/2000/svg">
<path d="M0 10C0 4.47715 4.47715 0 10 0H329C334.523 0 339 4.47715 339 10V55C339 66.0457 330.046 75 319 75H19.9871C9.59773 75 0.938427 82.9548 0.0588917 93.3068L0 94V10Z" fill="url(#paint0_linear_386_4026)"/>
<path d="M11.0542 0H50.1129V59.9508L30.5835 47.0383L11.0542 59.9508V0Z" fill="white" fill-opacity="0.15"/>
<g clip-path="url(#clip0_386_4026)">
<path d="M30.6255 38.0443C28.3528 38.0443 26.0858 38.0365 23.8131 38.0443C23.2349 38.0443 22.7254 37.8649 22.3361 37.2485C22.1071 36.8818 21.9182 36.4839 21.9182 35.9846C21.9182 32.9496 21.9182 29.9067 21.9182 26.8717C21.9182 26.6065 21.8896 26.4036 21.7407 26.2086C21.3858 25.7482 21.0538 25.2489 20.6988 24.7886C20.4469 24.4609 20.4355 24.4531 20.0977 24.6559C19.5882 24.968 19.0902 25.3113 18.5807 25.6312C18.4547 25.7092 18.4948 25.756 18.5578 25.8419C18.9814 26.427 19.405 27.0122 19.8287 27.6051C19.8859 27.6832 19.9432 27.7612 19.9947 27.847C20.2122 28.2215 20.2122 28.5024 19.9947 28.752C19.7714 29.0173 19.5882 28.9939 19.3421 28.6584C18.8383 27.9796 18.3403 27.3008 17.8422 26.6221C17.5674 26.2554 17.5617 26.232 17.2125 26.4738C16.8289 26.7469 16.3481 26.5909 16.1305 26.0525C16.0103 25.7638 16.0046 25.4518 16.0962 25.1865C16.3939 24.3595 16.6457 23.5168 16.9263 22.682C17.1667 21.9642 17.43 21.2542 17.6705 20.5365C17.8594 19.9825 18.0254 19.4208 18.2143 18.8668C18.5349 17.9228 18.8612 16.9787 19.1761 16.0347C19.3077 15.6446 19.4394 15.2466 19.5539 14.8487C19.76 14.1388 20.2237 13.8735 20.6874 13.577C21.3915 13.1245 22.1186 12.75 22.8055 12.2428C23.1834 11.962 23.5955 11.7591 23.9905 11.5173C24.6718 11.0959 25.3587 10.698 26.0343 10.2533C26.6124 9.87102 27.2078 9.53553 27.786 9.16103C28.3356 8.80213 28.8508 9.13762 28.9539 9.93343C28.9997 10.2845 28.8623 10.6044 28.7649 10.9165C28.576 11.5251 28.3699 12.118 28.1638 12.7188C27.9177 13.4366 27.6543 14.1388 27.4311 14.8721C27.4025 14.958 27.3738 14.9892 27.4311 15.0672C27.5742 15.2623 27.7116 15.4573 27.8433 15.668C27.9463 15.824 28.0722 15.7928 28.1982 15.7928C32.7322 15.7928 37.2661 15.7928 41.7944 15.7928C42.4012 15.7928 42.9107 16.0893 43.2656 16.7759C43.5118 17.2518 43.5747 17.7901 43.5747 18.3597C43.5747 21.6365 43.5747 24.9212 43.5747 28.1981C43.5747 28.479 43.5747 28.7676 43.5633 29.0485C43.5633 29.1812 43.5633 29.306 43.6721 29.3606C43.9926 29.5322 44.2159 29.8677 44.2617 30.3046C44.3361 31.0224 44.6796 31.4047 45.0746 31.7792C45.2177 31.9119 45.3265 32.0913 45.4181 32.3098C45.5956 32.7389 45.4696 33.1368 45.3609 33.5113C45.2177 33.9872 45.212 34.4163 45.3609 34.8845C45.6242 35.6803 45.504 36.1796 44.9945 36.7023C44.8456 36.8584 44.6052 36.952 44.5651 37.1783C44.525 37.4123 44.7254 37.623 44.817 37.8493C45.1662 38.6841 45.5154 39.5189 45.8532 40.3537C46.0306 40.7906 45.9047 41.3992 45.5727 41.5864C45.3494 41.7113 45.1032 41.6957 44.8685 41.6411C44.6911 41.6021 44.5995 41.6957 44.5308 41.8907C44.4792 42.039 44.422 42.1872 44.359 42.3276C44.2216 42.6475 44.0384 42.8426 43.7408 42.8426C43.3916 42.8426 43.2313 42.5149 43.1053 42.1872C42.7962 41.3914 42.4355 40.6346 42.1149 39.8466C42.0577 39.7061 41.9718 39.6905 41.886 39.7764C41.5768 40.0572 41.2677 40.0104 40.9586 39.7764C40.8326 39.6827 40.7754 39.6671 40.6895 39.8856C40.346 40.7594 39.9796 41.6099 39.6075 42.4603C39.39 42.9596 38.7259 43.0376 38.4397 42.273C38.4168 42.2184 38.4053 42.156 38.3882 42.1014C38.2851 41.7581 38.1248 41.5864 37.8214 41.6489C37.6325 41.6879 37.4264 41.6801 37.2375 41.5552C36.8139 41.2666 36.8368 40.5878 37.0429 40.1431C37.3062 39.5813 37.5466 38.9962 37.7928 38.4188C37.9531 38.0443 37.9474 38.0365 37.6153 38.0365C35.2739 38.0365 32.9382 38.0365 30.5968 38.0365L30.6255 38.0443ZM32.2169 32.5126C32.2169 32.5126 32.2169 32.5126 32.2169 32.5204C33.8714 32.5204 35.5258 32.5204 37.1803 32.5204C37.2604 32.5204 37.3577 32.5751 37.3978 32.4268C37.5466 31.9197 37.8901 31.6778 38.1821 31.3813C38.3252 31.2409 38.3996 31.0615 38.4569 30.8274C38.5714 30.3203 38.6458 29.7819 39.0293 29.4698C39.2182 29.3216 39.4186 29.306 39.6247 29.2982C39.7621 29.2982 39.8365 29.2358 39.8365 29.0251C39.8365 27.137 39.8365 25.2489 39.8365 23.3686C39.8365 23.2594 39.8365 23.1736 39.7277 23.1345C39.0923 22.8849 38.6973 22.2841 38.4626 21.4805C38.4111 21.3011 38.3595 21.262 38.2393 21.262C35.2682 21.262 32.2971 21.262 29.3317 21.262C29.2286 21.262 29.1886 21.3401 29.1485 21.4103C28.971 21.7458 28.8107 22.1047 28.6218 22.4324C27.8318 23.7899 26.9674 25.0539 25.9312 26.0759C25.7423 26.2632 25.645 26.4738 25.6564 26.8093C25.6793 27.3945 25.6793 27.9796 25.6793 28.5726C25.6793 29.1499 25.6679 29.7273 25.6679 30.3046C25.6679 30.4529 25.6278 30.6245 25.8053 30.7104C26.4006 30.9834 26.8185 31.5374 27.0246 32.341C27.0819 32.5438 27.1448 32.536 27.2479 32.536C28.9023 32.536 30.5568 32.536 32.2112 32.536L32.2169 32.5126ZM27.9062 10.464C27.328 10.8307 26.8185 11.1818 26.2919 11.4782C25.3988 11.9854 24.5401 12.6017 23.6528 13.1167C22.6567 13.694 21.6949 14.365 20.6931 14.9268C20.5614 15.0048 20.4298 15.1218 20.3897 15.3559C20.3439 15.6055 20.258 15.8396 20.1722 16.0659C19.9088 16.7602 19.6913 17.4858 19.4394 18.188C19.0501 19.2803 18.7353 20.4272 18.346 21.5117C17.9453 22.6118 17.6304 23.7587 17.2239 24.851C17.201 24.9134 17.1495 24.9836 17.1896 25.0461C17.2411 25.1163 17.3041 25.0695 17.3613 25.0304C18.3403 24.3829 19.3364 23.7743 20.3267 23.1658C21.5404 22.4246 22.7426 21.6287 23.9676 20.9188C24.2024 20.7861 24.4829 20.7159 24.6203 20.357C24.7977 19.9045 24.9466 19.4286 25.0897 18.9526C25.4045 17.8915 25.7938 16.8851 26.1316 15.8396C26.4064 14.9892 26.6869 14.1466 26.9674 13.3039C27.1677 12.711 27.3738 12.1336 27.5685 11.5407C27.6772 11.2052 27.7746 10.8697 27.9062 10.4484V10.464ZM28.9081 17.0411C29.0741 17.283 29.1886 17.478 29.3202 17.6419C29.7782 18.2114 29.9557 18.9136 29.824 19.7406C29.7839 19.9903 29.7839 20.0683 30.0015 20.0683C32.818 20.0605 35.6346 20.0683 38.4511 20.0605C38.8519 20.0605 39.0866 20.3336 39.2583 20.7939C39.3499 21.0514 39.3728 21.3401 39.5274 21.5741C39.722 21.8706 39.9854 21.9954 40.243 22.1359C40.5578 22.3153 40.7181 22.6274 40.7181 23.0877C40.7181 23.3374 40.7181 23.5871 40.7181 23.8445C40.7181 25.4049 40.7181 26.9654 40.7181 28.5258C40.7181 28.6038 40.6895 28.713 40.741 28.7676C40.8212 28.8535 40.8555 28.7052 40.9128 28.6662C41.136 28.5102 41.3593 28.4165 41.6112 28.4868C41.9547 28.5882 42.1779 28.9549 42.4642 29.1733C42.5328 29.228 42.5844 29.3762 42.6702 29.3216C42.7389 29.2748 42.7046 29.1265 42.7046 29.0329C42.7046 26.8249 42.7046 24.6091 42.7046 22.4011C42.7046 20.9734 42.7046 19.5534 42.7046 18.1256C42.7046 17.6419 42.4699 17.1816 42.1779 17.1191C42.0062 17.0801 41.8287 17.0567 41.6512 17.0567C37.581 17.0567 33.5107 17.0567 29.4405 17.0567C29.2802 17.0567 29.1256 17.0567 28.9081 17.0567V17.0411ZM37.8271 36.7882C37.8443 36.6165 37.7527 36.5931 37.7069 36.5463C37.4779 36.2966 37.3863 35.9768 37.3806 35.571C37.3806 35.1497 37.5237 34.7908 37.581 34.3929C37.6497 33.8936 37.6211 33.8234 37.2547 33.8234C33.9 33.8234 30.5453 33.8234 27.1906 33.8234C26.6869 33.8234 26.3033 33.4333 26.1716 32.7779C26.0801 32.3098 25.874 32.0055 25.5305 31.8651C25.0153 31.6544 24.7519 31.2409 24.7691 30.4529C24.792 29.4776 24.7748 28.5024 24.7691 27.5271C24.7691 27.4491 24.7977 27.3477 24.7347 27.293C24.6661 27.2306 24.626 27.3243 24.5745 27.3711C24.0707 27.7924 23.5383 27.9094 22.9773 27.6363C22.8399 27.5661 22.7883 27.5661 22.7941 27.8002C22.8055 28.4322 22.7941 29.0563 22.7941 29.6883C22.7941 31.6466 22.7941 33.6049 22.7941 35.5632C22.7941 36.3591 23.0918 36.7648 23.6642 36.7648C28.2325 36.7648 32.8066 36.7648 37.3749 36.7648C37.518 36.7648 37.6669 36.7648 37.8157 36.7648L37.8271 36.7882ZM28.9367 19.1945C28.931 19.0229 28.8737 18.7966 28.7363 18.5859C28.2841 17.8994 27.7746 17.2986 27.3109 16.6276C27.0017 16.1829 26.9903 16.1985 26.8014 16.7759C26.6239 17.322 26.4464 17.8681 26.269 18.4065C26.0228 19.1477 25.7595 19.8811 25.519 20.6223C25.3587 21.1138 25.1527 21.5429 24.7748 21.777C24.1737 22.1515 23.5726 22.5182 22.9773 22.8849C22.4735 23.197 21.9754 23.5246 21.4774 23.8445C21.4144 23.8835 21.3057 23.9069 21.4144 24.0474C21.9812 24.812 22.5422 25.5766 23.1147 26.3256C23.3665 26.6533 23.607 26.6689 23.9047 26.4504C24.5745 25.9667 25.1698 25.3347 25.7595 24.6794C26.8529 23.4622 27.7574 22.0188 28.5531 20.4428C28.7306 20.0917 28.9367 19.7406 28.9367 19.1789V19.1945ZM42.8763 37.8258C42.9794 37.818 43.0423 37.8024 43.1053 37.8102C43.3114 37.8337 43.3973 37.7478 43.4603 37.4435C43.5175 37.1549 43.5976 36.8584 43.7179 36.5931C43.8724 36.2576 44.1186 36.0782 44.3419 35.8441C44.5823 35.5945 44.5823 35.5086 44.4678 35.1263C44.3762 34.8142 44.2961 34.4866 44.3075 34.1355C44.319 33.7844 44.4106 33.4723 44.5021 33.1524C44.5479 32.9808 44.6109 32.7935 44.4449 32.6609C43.9984 32.2942 43.6034 31.8495 43.506 31.1161C43.4316 30.5543 43.1797 30.5231 42.8534 30.5699C42.6187 30.6011 42.3726 30.6089 42.1607 30.4217C41.9776 30.2578 41.7829 30.1018 41.6341 29.8833C41.4623 29.6259 41.3364 29.7507 41.199 29.8989C41.1818 29.9145 41.1704 29.9458 41.1532 29.9692C40.7811 30.3593 40.3918 30.6948 39.8823 30.5777C39.7793 30.5543 39.6648 30.5777 39.5617 30.5777C39.4816 30.5777 39.4129 30.6089 39.4186 30.726C39.4301 30.9366 39.3385 31.1083 39.3098 31.2955C39.2411 31.709 39.0809 32.0523 38.8061 32.2864C38.6687 32.4034 38.5599 32.5594 38.4168 32.6609C38.3195 32.7311 38.2794 32.8325 38.3309 33.0198C38.5198 33.7532 38.64 34.4944 38.3538 35.2434C38.2221 35.5789 38.3996 35.7583 38.5828 35.9299C38.7603 36.0938 38.9492 36.242 39.0809 36.4683C39.2755 36.8038 39.3442 37.2095 39.4072 37.6074C39.4301 37.7478 39.453 37.8102 39.5617 37.8102C39.6762 37.8102 39.7907 37.8571 39.9052 37.8415C40.3804 37.779 40.7639 38.0053 41.1188 38.4266C41.3936 38.7543 41.4852 38.7543 41.76 38.4266C42.0978 38.0287 42.4527 37.7478 42.8763 37.8337V37.8258ZM44.8514 40.4161C44.6166 39.8466 44.4048 39.316 44.193 38.7855C44.1472 38.6607 44.09 38.6217 44.0213 38.7387C43.9468 38.8557 43.8553 38.9337 43.7579 38.9728C43.5576 39.0664 43.3515 39.1444 43.1282 39.1132C42.9622 39.0898 42.8649 39.0976 42.9794 39.4019C43.1969 39.9558 43.4431 40.4786 43.6663 41.0247C43.7408 41.2041 43.8095 41.2354 43.8896 41.0091C44.0442 40.58 44.2903 40.3537 44.6567 40.4239C44.7082 40.4317 44.7598 40.4239 44.8456 40.4161H44.8514ZM38.0218 40.3537C38.1477 40.3849 38.2508 40.4395 38.3424 40.4239C38.5828 40.3849 38.7316 40.5566 38.8633 40.7828C38.9148 40.8687 38.9721 40.9545 39.0122 41.0559C39.0866 41.2354 39.1495 41.1885 39.2068 41.0481C39.3098 40.7984 39.4014 40.541 39.5102 40.2913C39.6762 39.9246 39.8136 39.5267 39.9739 39.1288C39.9224 39.121 39.8995 39.1132 39.8766 39.1132C39.4988 39.1132 39.1152 39.1288 38.8232 38.6997C38.7717 38.6217 38.7202 38.6997 38.6858 38.7777C38.474 39.2848 38.2622 39.792 38.0275 40.3537H38.0218Z" fill="white"/>
<path d="M32.761 29.2441C34.1121 29.2441 35.4688 29.2441 36.8198 29.2441C37.066 29.2441 37.3122 29.2831 37.4152 29.681C37.4954 29.9931 37.398 30.313 37.1691 30.4378C37.0259 30.5159 36.8714 30.5237 36.7168 30.5237C34.0777 30.5237 31.4444 30.5237 28.8053 30.5237C28.5648 30.5237 28.3129 30.5627 28.1584 30.2038C27.9924 29.8059 28.084 29.447 28.4045 29.2909C28.5076 29.2363 28.6163 29.2363 28.7194 29.2363C30.0647 29.2363 31.41 29.2363 32.7553 29.2363L32.761 29.2441Z" fill="white"/>
<path d="M32.7667 26.2871C34.1578 26.2871 35.5489 26.2871 36.9401 26.2871C37.1919 26.2871 37.3465 26.4353 37.4267 26.7474C37.4953 27.0205 37.4095 27.239 37.2606 27.4106C37.1519 27.5354 37.0087 27.5432 36.8714 27.5432C35.0566 27.5432 33.2419 27.551 31.4272 27.551C30.4883 27.551 29.5495 27.551 28.6106 27.5432C28.416 27.5432 28.2442 27.5042 28.1469 27.2078C27.9981 26.7708 28.187 26.2871 28.5419 26.2871C29.1888 26.2871 29.8357 26.2871 30.4826 26.2871C31.244 26.2871 32.0054 26.2871 32.7667 26.2871Z" fill="white"/>
<path d="M32.7724 23.3301C33.6197 23.3301 34.4612 23.3301 35.3084 23.3301C35.526 23.3301 35.6576 23.4705 35.7435 23.7358C35.8351 24.0167 35.7721 24.2429 35.6233 24.438C35.5203 24.5784 35.3657 24.5784 35.234 24.5784C33.5796 24.5784 31.9309 24.5862 30.2764 24.5784C29.8413 24.5784 29.6353 24.2039 29.7727 23.7046C29.8471 23.4393 30.0074 23.3301 30.2135 23.3301C31.0664 23.3301 31.9194 23.3301 32.7724 23.3301Z" fill="white"/>
<path d="M41.428 37.4756C40.0484 37.4756 39.0179 35.9698 39.0294 34.1831C39.0408 32.334 40.0598 30.8984 41.4338 30.8984C42.8249 30.8984 43.8553 32.3652 43.8668 34.2065C43.8782 35.9542 42.8077 37.499 41.428 37.4834V37.4756ZM42.9394 34.2065C43.0195 33.0986 42.2352 32.1312 41.3994 32.1624C40.6209 32.1858 39.9511 33.0674 39.9568 34.2143C39.9568 35.3924 40.6209 36.2116 41.4338 36.2195C42.2753 36.2195 42.9909 35.3222 42.9394 34.1987V34.2065Z" fill="white"/>
</g>
<defs>
<linearGradient id="paint0_linear_386_4026" x1="169.5" y1="0" x2="169.5" y2="94" gradientUnits="userSpaceOnUse">
<stop stop-color="#008444"/>
<stop offset="1" stop-color="#09293F"/>
</linearGradient>
<clipPath id="clip0_386_4026">
<rect width="29.9173" height="33.8298" fill="white" transform="translate(16.0391 9.02148)"/>
</clipPath>
</defs>
</svg>
