<svg width="315" height="120" viewBox="0 0 315 120" fill="none" xmlns="http://www.w3.org/2000/svg">
<rect opacity="0.1" y="16" width="315" height="104" rx="15" fill="#008444"/>
<rect x="86" width="143" height="31" rx="15.5" fill="#008444"/>
<path d="M123.834 9.5H134.134V12.14H130.354V23.5H127.594V12.14H123.834V9.5ZM146.335 23.5H143.355L140.535 18.64H138.435V23.5H135.675V9.5H141.275C142.575 9.5 143.675 9.96 144.575 10.86C145.475 11.76 145.935 12.86 145.935 14.14C145.935 15.88 144.855 17.48 143.235 18.22L146.335 23.5ZM141.275 12.08H138.435V16.22H141.275C142.315 16.22 143.175 15.28 143.175 14.14C143.175 13 142.315 12.08 141.275 12.08ZM149.36 28.06C148.5 28.06 147.78 27.36 147.78 26.52C147.78 25.68 148.5 24.96 149.36 24.96C150.24 24.96 150.96 25.68 150.96 26.52C150.96 27.36 150.24 28.06 149.36 28.06ZM147.96 23.5V9.5H150.72V23.5H147.96ZM165.032 15.98H172.052V17.06C172.052 19.06 171.412 20.68 170.132 21.92C168.852 23.16 167.192 23.78 165.172 23.78C163.012 23.78 161.212 23.08 159.792 21.68C158.372 20.26 157.672 18.54 157.672 16.52C157.672 14.48 158.372 12.76 159.772 11.34C161.192 9.92 162.932 9.22 165.012 9.22C167.632 9.22 169.912 10.5 171.112 12.48L168.752 13.84C168.092 12.7 166.652 11.9 164.992 11.9C163.652 11.9 162.552 12.34 161.692 13.22C160.832 14.08 160.412 15.18 160.412 16.52C160.412 17.84 160.852 18.94 161.712 19.8C162.592 20.66 163.752 21.08 165.192 21.08C167.332 21.08 168.772 20.08 169.272 18.42H165.032V15.98ZM174.015 23.5V9.5H176.775V23.5H174.015ZM184.746 5.5H187.846L185.626 8.24H183.146L184.746 5.5ZM191.366 23.5H188.366L187.526 20.98H181.946L181.106 23.5H178.126L183.026 9.5H186.446L191.366 23.5ZM184.746 12.68L182.826 18.4H186.666L184.746 12.68Z" fill="white"/>
</svg>
