<svg width="272" height="83" viewBox="0 0 272 83" fill="none" xmlns="http://www.w3.org/2000/svg"> <path d="M272 44.6201C272 44.6201 230.961 -0.728503 177.542 43.2747C175.035 45.2979 172.673 47.6245 170.345 49.9713C167.241 52.7666 163.884 55.1416 160.335 57.0523C145.169 65.5082 127.954 67.2484 111.801 61.9584C93.6823 56.1621 53.9822 49.7083 -2.02656e-06 82.8372C-2.02656e-06 83.2013 272 82.8372 272 82.8372V44.6201Z" fill="#006C37"/> <ellipse cx="23.972" cy="24.1597" rx="23.972" ry="24.1597" transform="matrix(-1 0 0 1 255.455 0)" fill="white" fill-opacity="0.2"/> <ellipse cx="11.986" cy="12.0798" rx="11.986" ry="12.0798" transform="matrix(-1 0 0 1 244.027 12.6426)" fill="#A6E027"/> </svg>