<svg width="595" height="181" viewBox="0 0 595 181" fill="none" xmlns="http://www.w3.org/2000/svg">
<path d="M594.504 97.3054C594.504 97.3054 504.883 -1.58735 388.224 94.3715C382.749 98.7834 377.591 103.857 372.508 108.975C365.729 115.071 358.397 120.25 350.647 124.417C317.528 142.857 279.933 146.651 244.658 135.115C205.089 122.475 118.392 108.401 0.503906 180.646C0.503906 181.44 594.504 180.646 594.504 180.646V97.3054Z" fill="#006C37"/>
<ellipse cx="52.3506" cy="52.6855" rx="52.3506" ry="52.6855" transform="matrix(-1 0 0 1 558.371 0)" fill="white" fill-opacity="0.2"/>
<ellipse cx="26.1753" cy="26.3428" rx="26.1753" ry="26.3428" transform="matrix(-1 0 0 1 533.414 27.5684)" fill="#A6E027"/>
</svg>
