<svg width="134" height="166" viewBox="0 0 134 166" fill="none" xmlns="http://www.w3.org/2000/svg">
<path d="M131.085 7.08184C133.681 10.7961 134.494 15.1972 133.721 19.3049C132.949 23.4125 130.577 27.2268 126.809 29.7741L84.0189 58.6946L62.0885 45.5913C56.3687 42.1772 49.3952 42.5639 44.1973 46.0181C44.2312 45.9848 44.2718 45.9581 44.3125 45.9314L108.023 2.86747C115.573 -2.23379 125.901 -0.346662 131.078 7.08184H131.085Z" fill="white" fill-opacity="0.1"/>
<path d="M116.995 79.8196C119.59 83.5338 120.404 87.9349 119.631 92.0426C118.852 96.1436 116.487 99.9579 112.712 102.512L64.9272 134.806C57.3776 139.908 47.0563 138.027 41.8719 130.592C39.2763 126.878 38.463 122.477 39.2288 118.376C40.0014 114.268 42.3734 110.454 46.1481 107.9L72.5649 90.0488L94.4139 103.105C100.174 106.539 107.216 106.126 112.427 102.605C114.304 101.338 115.944 99.6711 117.198 97.6306C121.956 89.9221 119.462 79.8796 111.634 75.2051L109.425 73.8848C112.393 75.0384 115.057 77.0455 117.002 79.8262L116.995 79.8196Z" fill="white" fill-opacity="0.1"/>
<path d="M84.0184 58.6952L63.091 72.8387C55.5415 77.9399 45.2133 76.0595 40.0222 68.6243C37.4266 64.9101 36.6133 60.5156 37.3927 56.408C38.1585 52.347 40.483 48.566 44.1968 46.0187C49.388 42.5646 56.3683 42.1778 62.0881 45.592L84.0184 58.6952Z" fill="white" fill-opacity="0.1"/>
<path d="M117.198 97.6247C115.944 99.6652 114.297 101.332 112.427 102.599C107.215 106.12 100.174 106.54 94.4135 103.099L72.5645 90.0428L93.9323 75.5992C98.6559 72.4118 104.457 71.9517 109.411 73.8655H109.425L111.634 75.1925C119.461 79.8669 121.955 89.9094 117.198 97.618V97.6247Z" fill="white" fill-opacity="0.1"/>
<path d="M109.411 73.8719C104.457 71.9581 98.6492 72.4116 93.9324 75.6057L72.5645 90.0493L44.8602 73.4918C37.0328 68.8173 34.5388 58.7749 39.2963 51.0663C40.55 49.0258 42.1968 47.3587 44.0673 46.0917C44.1079 46.0651 44.1486 46.0317 44.196 46.0117C40.4823 48.559 38.1577 52.3399 37.3919 56.401C36.6194 60.5086 37.4326 64.903 40.0214 68.6173C45.2058 76.0458 55.534 77.9329 63.0903 72.8317L84.0177 58.6882L109.411 73.8653V73.8719Z" fill="white" fill-opacity="0.1"/>
<path d="M32.4595 156.759C40.0123 151.655 41.9302 141.493 36.7431 134.062C31.5561 126.63 21.2284 124.743 13.6756 129.847C6.12277 134.95 4.20492 145.112 9.39195 152.544C14.579 159.976 24.9067 161.863 32.4595 156.759Z" fill="white" fill-opacity="0.1"/>
</svg>
