<svg width="42" height="42" viewBox="0 0 42 42" fill="none" xmlns="http://www.w3.org/2000/svg">
<path opacity="0.4" d="M21 9.27595V37.3285C21.2975 37.3285 21.6125 37.2759 21.8575 37.1359L21.9276 37.101C25.2876 35.2635 31.1499 33.3385 34.9474 32.831L35.455 32.7609C37.135 32.5509 38.5 30.976 38.5 29.296V8.15592C38.5 6.07342 36.8025 4.49844 34.72 4.67344C31.045 4.97094 25.4801 6.82599 22.3651 8.76849L21.9276 9.03092C21.6651 9.18842 21.3325 9.27595 21 9.27595Z" fill="white"/>
<path d="M3.5 8.17168V29.2942C3.5 30.9742 4.86498 32.5492 6.54498 32.7592L7.12251 32.8292C10.9375 33.3367 16.8176 35.2792 20.1776 37.1342C20.4051 37.2742 20.685 37.3267 21 37.3267V9.27419C20.6675 9.27419 20.3349 9.18666 20.0724 9.02916L19.775 8.83669C16.66 6.87669 11.0775 5.0042 7.40247 4.6892H7.29747C5.21497 4.5142 3.5 6.07168 3.5 8.17168Z" fill="white"/>
<path d="M33.25 4.86523V12.3727C33.25 13.0727 32.4799 13.4927 31.8849 13.1077L29.75 11.6902L27.6151 13.1077C27.0376 13.4927 26.25 13.0727 26.25 12.3727V6.86015C28.5425 5.95015 31.0975 5.21523 33.25 4.86523Z" fill="white"/>
</svg>
