<svg width="45" height="45" viewBox="0 0 45 45" fill="none" xmlns="http://www.w3.org/2000/svg">
<path d="M31.42 6.76698V3.8933C31.42 3.13803 30.7944 2.51172 30.04 2.51172C29.2856 2.51172 28.66 3.13803 28.66 3.8933V6.65646H16.7V3.8933C16.7 3.13803 16.0744 2.51172 15.32 2.51172C14.5656 2.51172 13.94 3.13803 13.94 3.8933V6.76698C8.97195 7.2275 6.56155 10.1933 6.19355 14.5959C6.15675 15.1301 6.59835 15.5722 7.11355 15.5722H38.2464C38.78 15.5722 39.2216 15.1117 39.1664 14.5959C38.7984 10.1933 36.388 7.2275 31.42 6.76698Z" fill="white"/>
<path opacity="0.4" d="M39.2391 20.177V23.3822C39.2391 24.5059 38.2455 25.3717 37.1415 25.1875C36.6263 25.1138 36.0927 25.0585 35.5591 25.0585C29.9839 25.0585 25.4391 29.6085 25.4391 35.1901C25.4391 36.0375 25.7703 37.2165 26.1199 38.2849C26.5247 39.4822 25.6415 40.7164 24.3719 40.7164H15.3191C8.87914 40.7164 6.11914 37.0322 6.11914 31.5059V20.1585C6.11914 19.1454 6.94714 18.3164 7.95914 18.3164H37.3991C38.4111 18.3348 39.2391 19.1638 39.2391 20.177Z" fill="white"/>
<path d="M35.5592 27.8398C31.4928 27.8398 28.1992 31.1372 28.1992 35.2083C28.1992 36.5898 28.5856 37.8977 29.2664 39.003C30.536 41.1398 32.8728 42.5767 35.5592 42.5767C38.2456 42.5767 40.5824 41.1398 41.852 39.003C42.5328 37.8977 42.9192 36.5898 42.9192 35.2083C42.9192 31.1372 39.6256 27.8398 35.5592 27.8398ZM39.368 34.4162L35.4488 38.0451C35.1912 38.2846 34.8416 38.4135 34.5104 38.4135C34.1608 38.4135 33.8112 38.2846 33.5352 38.0082L31.7136 36.1846C31.18 35.6504 31.18 34.7662 31.7136 34.232C32.2472 33.6977 33.1304 33.6977 33.664 34.232L34.5472 35.1162L37.4912 32.3898C38.0432 31.8741 38.9264 31.9109 39.4416 32.4635C39.9568 33.0162 39.92 33.882 39.368 34.4162Z" fill="white"/>
<path d="M16.2404 27.8401C15.762 27.8401 15.2836 27.6375 14.934 27.3059C14.6028 26.9559 14.4004 26.477 14.4004 25.998C14.4004 25.5191 14.6028 25.0402 14.934 24.6902C15.3572 24.2665 16.0012 24.0638 16.6084 24.1928C16.7188 24.2112 16.8292 24.248 16.9396 24.3033C17.05 24.3401 17.1604 24.3954 17.2708 24.4691C17.3628 24.5428 17.4548 24.6165 17.5468 24.6902C17.878 25.0402 18.0804 25.5191 18.0804 25.998C18.0804 26.477 17.878 26.9559 17.5468 27.3059C17.4548 27.3796 17.3628 27.4533 17.2708 27.527C17.1604 27.6006 17.05 27.656 16.9396 27.6928C16.8292 27.7481 16.7188 27.7849 16.6084 27.8033C16.4796 27.8217 16.3508 27.8401 16.2404 27.8401Z" fill="white"/>
<path d="M22.6798 27.8409C22.2014 27.8409 21.723 27.6382 21.3734 27.3066C21.0422 26.9566 20.8398 26.4777 20.8398 25.9988C20.8398 25.5198 21.0422 25.0409 21.3734 24.6909C22.0726 24.0093 23.3054 24.0093 23.9862 24.6909C24.3174 25.0409 24.5198 25.5198 24.5198 25.9988C24.5198 26.4777 24.3174 26.9566 23.9862 27.3066C23.6366 27.6382 23.1582 27.8409 22.6798 27.8409Z" fill="white"/>
<path d="M16.2404 34.2876C15.762 34.2876 15.2836 34.085 14.934 33.7534C14.6028 33.4034 14.4004 32.9245 14.4004 32.4455C14.4004 31.9666 14.6028 31.4877 14.934 31.1377C15.118 30.9719 15.302 30.8429 15.5412 30.7508C16.222 30.456 17.0316 30.6219 17.5468 31.1377C17.878 31.4877 18.0804 31.9666 18.0804 32.4455C18.0804 32.9245 17.878 33.4034 17.5468 33.7534C17.1972 34.085 16.7188 34.2876 16.2404 34.2876Z" fill="white"/>
</svg>
