<svg width="98" height="83" viewBox="0 0 98 83" fill="none" xmlns="http://www.w3.org/2000/svg">
<g id="&#226;&#128;&#156;">
<path id="&#226;&#128;&#156;_2" d="M30.1728 43.6233C33.7231 45.4248 36.3859 47.9985 38.161 51.3442C39.9362 54.4326 40.8238 57.907 40.8238 61.7674C40.8238 67.9442 38.795 73.0915 34.7375 77.2093C30.9336 81.0698 26.1153 83 20.2826 83C14.7035 83 9.88522 81.0698 5.82771 77.2093C2.02379 73.3488 0.121826 68.2016 0.121826 61.7674C0.121826 58.9364 0.629016 55.9767 1.6434 52.8884C2.91137 49.8 4.17934 46.8403 5.44732 44.0093L25.9885 0H45.3885L30.1728 43.6233ZM81.9061 43.6233C85.4565 45.4248 88.1192 47.9985 89.8944 51.3442C91.6695 54.4326 92.5571 57.907 92.5571 61.7674C92.5571 67.9442 90.5284 73.0915 86.4708 77.2093C82.6669 81.0698 77.8486 83 72.0159 83C66.4369 83 61.6186 81.0698 57.5611 77.2093C53.7571 73.3488 51.8552 68.2016 51.8552 61.7674C51.8552 58.9364 52.3624 55.9767 53.3767 52.8884C54.6447 49.8 55.9127 46.8403 57.1807 44.0093L77.7218 0H97.1218L81.9061 43.6233Z" fill="#A6E027"/>
</g>
</svg>
