<svg width="42" height="42" viewBox="0 0 42 42" fill="none" xmlns="http://www.w3.org/2000/svg">
<path opacity="0.4" d="M12.25 5.25H29.75C35 5.25 38.5 7.875 38.5 14V19.495C38.5 20.7725 37.1875 21.5775 36.015 21.07C34.09 20.23 31.9025 19.915 29.61 20.2825C25.025 21.035 21.28 24.6575 20.3525 29.2075C20.09 30.5375 20.055 31.8325 20.23 33.075C20.37 34.1075 19.53 35.0175 18.4975 35.0175H12.25C7 35.0175 3.5 32.3925 3.5 26.2675V14.0175C3.5 7.87502 7 5.25 12.25 5.25Z" fill="white"/>
<path d="M21.0008 20.7729C19.5308 20.7729 18.0433 20.3179 16.9058 19.3904L11.4283 15.0154C10.8683 14.5604 10.7633 13.7379 11.2183 13.1779C11.6733 12.6179 12.4958 12.5129 13.0558 12.9679L18.5333 17.3429C19.8633 18.4104 22.1208 18.4104 23.4508 17.3429L28.9283 12.9679C29.4883 12.5129 30.3283 12.6004 30.7658 13.1779C31.2208 13.7379 31.1333 14.5779 30.5558 15.0154L25.0783 19.3904C23.9583 20.3179 22.4708 20.7729 21.0008 20.7729Z" fill="white"/>
<path d="M31.5 22.75C26.67 22.75 22.75 26.6525 22.75 31.5C22.75 36.33 26.67 40.25 31.5 40.25C36.3475 40.25 40.25 36.33 40.25 31.5C40.25 26.6525 36.3475 22.75 31.5 22.75ZM35.0875 30.7125L34.44 31.3425L30.6425 35.1575C30.4675 35.315 30.135 35.49 29.89 35.525L28.175 35.77C27.5625 35.8575 27.125 35.42 27.2125 34.8075L27.4575 33.0925C27.4925 32.8475 27.65 32.515 27.825 32.34L31.64 28.5425L32.27 27.895C32.69 27.475 33.1625 27.195 33.6525 27.195C34.0725 27.195 34.545 27.3875 35.07 27.895C36.225 29.05 35.8575 29.9425 35.0875 30.7125Z" fill="white"/>
</svg>
