<svg width="1420" height="166" viewBox="0 0 1420 166" fill="none" xmlns="http://www.w3.org/2000/svg">
<mask id="mask0_1_18" style="mask-type:alpha" maskUnits="userSpaceOnUse" x="0" y="0" width="1420" height="166">
<rect width="1419.82" height="166" rx="10" fill="#008444"/>
</mask>
<g mask="url(#mask0_1_18)">
<rect width="1419.82" height="166" rx="10" fill="#008444"/>
<path d="M0 113.612C0 113.612 57.0244 51.973 131.252 111.784C134.735 114.534 138.017 117.696 141.252 120.886C145.565 124.685 150.23 127.914 155.161 130.511C176.234 142.004 200.155 144.369 222.6 137.179C247.777 129.301 302.941 120.528 377.951 165.558C377.951 166.053 0 165.558 0 165.558V113.612Z" fill="#006C37"/>
<ellipse cx="62.5219" cy="85.5367" rx="33.3097" ry="33.314" fill="white" fill-opacity="0.2"/>
<ellipse cx="61.7474" cy="86.3114" rx="16.6548" ry="16.657" fill="#FFC63C"/>
<path d="M1416.9 7.08184C1419.49 10.7961 1420.31 15.1972 1419.54 19.3049C1418.76 23.4125 1416.39 27.2268 1412.62 29.7741L1369.84 58.6946L1347.91 45.5913C1342.19 42.1772 1335.22 42.5639 1330.02 46.0181C1330.06 45.9848 1330.1 45.9581 1330.14 45.9314L1393.84 2.86747C1401.39 -2.23379 1411.72 -0.346662 1416.89 7.08184H1416.9Z" fill="white" fill-opacity="0.1"/>
<path d="M1402.81 79.8198C1405.41 83.5341 1406.22 87.9351 1405.45 92.0428C1404.67 96.1438 1402.3 99.9581 1398.53 102.512L1350.75 134.807C1343.2 139.908 1332.88 138.028 1327.7 130.592C1325.1 126.878 1324.29 122.477 1325.06 118.376C1325.83 114.268 1328.2 110.454 1331.97 107.9L1358.39 90.049L1380.23 103.106C1385.99 106.54 1393.03 106.126 1398.25 102.605C1400.12 101.338 1401.76 99.6714 1403.02 97.6309C1407.77 89.9223 1405.28 79.8798 1397.45 75.2053L1395.24 73.885C1398.21 75.0386 1400.87 77.0458 1402.82 79.8265L1402.81 79.8198Z" fill="white" fill-opacity="0.1"/>
<path d="M1369.84 58.6946L1348.91 72.8381C1341.37 77.9393 1331.04 76.0589 1325.85 68.6237C1323.25 64.9095 1322.44 60.515 1323.22 56.4074C1323.99 52.3464 1326.31 48.5654 1330.02 46.0181C1335.21 42.5639 1342.19 42.1772 1347.91 45.5914L1369.84 58.6946Z" fill="white" fill-opacity="0.1"/>
<path d="M1403.02 97.6242C1401.76 99.6647 1400.12 101.332 1398.25 102.599C1393.03 106.12 1385.99 106.54 1380.23 103.099L1358.39 90.0423L1379.75 75.5987C1384.48 72.4113 1390.28 71.9512 1395.23 73.865H1395.24L1397.45 75.192C1405.28 79.8665 1407.77 89.9089 1403.02 97.6175V97.6242Z" fill="white" fill-opacity="0.1"/>
<path d="M1395.23 73.8717C1390.28 71.9578 1384.47 72.4113 1379.75 75.6054L1358.39 90.049L1330.69 73.4916C1322.86 68.8171 1320.37 58.7746 1325.12 51.066C1326.38 49.0255 1328.02 47.3584 1329.89 46.0915C1329.94 46.0648 1329.98 46.0314 1330.02 46.0114C1326.31 48.5587 1323.99 52.3397 1323.22 56.4007C1322.45 60.5084 1323.26 64.9028 1325.85 68.617C1331.03 76.0455 1341.36 77.9327 1348.92 72.8314L1369.84 58.6879L1395.23 73.865V73.8717Z" fill="white" fill-opacity="0.1"/>
<path d="M1318.29 156.759C1325.84 151.655 1327.76 141.493 1322.57 134.061C1317.38 126.629 1307.06 124.742 1299.51 129.846C1291.95 134.95 1290.04 145.112 1295.22 152.544C1300.41 159.975 1310.74 161.863 1318.29 156.759Z" fill="white" fill-opacity="0.1"/>
</g>
</svg>
